<svg width="200" height="50" viewBox="0 0 200 50" fill="none" xmlns="http://www.w3.org/2000/svg">
  <rect width="200" height="50" rx="4" fill="#F3F4F6"/>
  <path d="M84.432 31V19.6H88.656C90.096 19.6 91.224 19.976 92.04 20.728C92.856 21.464 93.264 22.488 93.264 23.8C93.264 25.112 92.856 26.144 92.04 26.896C91.224 27.632 90.096 28 88.656 28H86.832V31H84.432ZM86.832 25.88H88.512C89.28 25.88 89.856 25.712 90.24 25.376C90.624 25.024 90.816 24.504 90.816 23.816C90.816 23.128 90.624 22.616 90.24 22.28C89.856 21.928 89.28 21.752 88.512 21.752H86.832V25.88ZM94.3661 31V19.6H101.254V21.752H96.7661V24.232H100.814V26.368H96.7661V28.864H101.254V31H94.3661ZM103.648 31V21.752H100.576V19.6H109.136V21.752H106.064V31H103.648ZM110.6 31V19.6H117.488V21.752H113V24.232H117.048V26.368H113V28.864H117.488V31H110.6ZM118.882 31V19.6H123.106C124.546 19.6 125.674 19.976 126.49 20.728C127.306 21.464 127.714 22.488 127.714 23.8C127.714 24.728 127.482 25.52 127.018 26.176C126.554 26.816 125.906 27.264 125.074 27.52L128.178 31H125.346L122.538 27.808H121.282V31H118.882ZM121.282 25.88H122.962C123.73 25.88 124.306 25.712 124.69 25.376C125.074 25.024 125.266 24.504 125.266 23.816C125.266 23.128 125.074 22.616 124.69 22.28C124.306 21.928 123.73 21.752 122.962 21.752H121.282V25.88Z" fill="#9CA3AF"/>
</svg> 